<?xml version="1.0" encoding="UTF-8"?>
<svg id="Layer_1" data-name="Layer 1" xmlns="http://www.w3.org/2000/svg" viewBox="0 0 591.66 338.66">
  <defs>
    <style>
      .cls-1 {
        fill: #3f73b9;
      }

      .cls-1, .cls-2, .cls-3, .cls-4 {
        stroke-width: 0px;
      }

      .cls-2 {
        fill: #16a84b;
      }

      .cls-3 {
        fill: #15a74a;
      }

      .cls-4 {
        fill: #16a74a;
      }
    </style>
  </defs>
  <path class="cls-1" d="M591.66,3.98C456.86,2.66,322.06,1.33,187.26,0c46.48,97.95,92.97,195.89,139.45,293.84-101.93-1.33-203.86-2.66-305.79-3.98-6.97,15.6-13.94,31.21-20.92,46.81,135.46.66,270.93,1.33,406.39,1.99-47.15-97.95-94.29-195.89-141.44-293.84,100.6,1,201.2,1.99,301.81,2.99,8.3-14.61,16.6-29.22,24.9-43.83Z"/>
  <path class="cls-3" d="M316.75,98.61c73.38.33,146.75.66,220.13,1-7.97,15.6-15.94,31.21-23.91,46.81-58.1-1.33-116.21-2.66-174.31-3.98-7.3-14.61-14.61-29.22-21.91-43.83Z"/>
  <path class="cls-3" d="M368.54,200.21c37.52-1,75.04-1.99,112.55-2.99-8.3,16.27-16.6,32.54-24.9,48.81h-69.72c-5.98-15.27-11.95-30.55-17.93-45.82Z"/>
  <path class="cls-4" d="M272.92,242.04c-73.04-1-146.09-1.99-219.13-2.99,8.63-14.61,17.27-29.22,25.9-43.83,57.44.33,114.88.66,172.32,1,6.97,15.27,13.94,30.55,20.92,45.82Z"/>
  <path class="cls-2" d="M107.57,139.45c37.85.33,75.7.66,113.55,1-5.31-14.61-10.62-29.22-15.94-43.83-23.57-.66-47.15-1.33-70.72-1.99-8.96,14.94-17.93,29.88-26.89,44.82Z"/>
</svg>